<svg xmlns="http://www.w3.org/2000/svg" width="68" height="66" viewBox="0 0 68 66">
  <defs>
    <style>
      .cls-1 {
        fill: #3172b9;
        fill-rule: evenodd;
      }
    </style>
  </defs>
  <path id="icon" class="cls-1" d="M50.393,0A18.064,18.064,0,0,0,31.9,17.512l-0.124,4.971a2.486,2.486,0,0,0,4.971.107l0.124-4.971a13.08,13.08,0,0,1,26.152.567C62.844,25.336,56.208,32.157,49,32H22C10.711,31.118.253,37.831,0.007,47.7a18.052,18.052,0,0,0,36.094.783l0.123-4.917a2.486,2.486,0,0,0-4.971-.108L31,57c-3.3,2.31-10.131,4.252-13.27,4.066-3.623-.215-12.931-6.1-12.752-13.253S14.792,35.844,22,36l27.5-.2A18.064,18.064,0,0,0,67.994,18.295,17.923,17.923,0,0,0,50.393,0Z"/>
</svg>
